<svg width="4" height="16" viewBox="0 0 4 16" fill="none" xmlns="http://www.w3.org/2000/svg">
<path d="M3.71875 8C3.71875 8.36775 3.6097 8.72724 3.40539 9.03302C3.20108 9.33879 2.91068 9.57711 2.57093 9.71784C2.23117 9.85857 1.85731 9.89539 1.49663 9.82365C1.13595 9.75191 0.804638 9.57482 0.544599 9.31478C0.284561 9.05474 0.107473 8.72343 0.0357282 8.36275C-0.0360162 8.00206 0.000805631 7.62821 0.141537 7.28845C0.282269 6.94869 0.52059 6.6583 0.826362 6.45399C1.13214 6.24968 1.49163 6.14063 1.85938 6.14063C2.35251 6.14063 2.82545 6.33652 3.17415 6.68523C3.52285 7.03393 3.71875 7.50687 3.71875 8ZM1.85938 4.54688C2.22713 4.54688 2.58662 4.43783 2.89239 4.23352C3.19816 4.0292 3.43648 3.73881 3.57721 3.39905C3.71795 3.0593 3.75477 2.68544 3.68302 2.32476C3.61128 1.96407 3.43419 1.63276 3.17415 1.37272C2.91411 1.11269 2.58281 0.935598 2.22212 0.863853C1.86144 0.792109 1.48758 0.828931 1.14782 0.969662C0.808068 1.11039 0.517673 1.34872 0.313362 1.65449C0.109051 1.96026 1.00276e-06 2.31975 1.00276e-06 2.6875C1.00276e-06 3.18064 0.195899 3.65358 0.544599 4.00228C0.8933 4.35098 1.36624 4.54688 1.85938 4.54688ZM1.85938 11.4531C1.49163 11.4531 1.13214 11.5622 0.826362 11.7665C0.52059 11.9708 0.282269 12.2612 0.141537 12.601C0.000805631 12.9407 -0.0360162 13.3146 0.0357282 13.6752C0.107473 14.0359 0.284561 14.3672 0.544599 14.6273C0.804638 14.8873 1.13595 15.0644 1.49663 15.1362C1.85731 15.2079 2.23117 15.1711 2.57093 15.0303C2.91068 14.8896 3.20108 14.6513 3.40539 14.3455C3.6097 14.0397 3.71875 13.6803 3.71875 13.3125C3.71875 12.8194 3.52285 12.3464 3.17415 11.9977C2.82545 11.649 2.35251 11.4531 1.85938 11.4531Z" fill="#6D6D6D"/>
</svg>
