<svg width="22" height="22" viewBox="0 0 22 22" fill="none" xmlns="http://www.w3.org/2000/svg">
<path d="M19.9375 17.875C19.9375 18.0573 19.8651 18.2322 19.7361 18.3611C19.6072 18.4901 19.4323 18.5625 19.25 18.5625H2.75C2.56766 18.5625 2.3928 18.4901 2.26386 18.3611C2.13493 18.2322 2.0625 18.0573 2.0625 17.875V4.125C2.0625 3.94266 2.13493 3.7678 2.26386 3.63886C2.3928 3.50993 2.56766 3.4375 2.75 3.4375C2.93234 3.4375 3.1072 3.50993 3.23614 3.63886C3.36507 3.7678 3.4375 3.94266 3.4375 4.125V12.2349L7.79711 8.42188C7.91574 8.31803 8.06646 8.25811 8.22402 8.25216C8.38157 8.24622 8.53638 8.29461 8.6625 8.38922L13.7165 12.1799L18.7971 7.73438C18.8637 7.66843 18.9431 7.61681 19.0304 7.58268C19.1177 7.54854 19.2111 7.53262 19.3047 7.53589C19.3984 7.53916 19.4904 7.56155 19.5751 7.60169C19.6599 7.64182 19.7355 7.69885 19.7973 7.76928C19.8592 7.8397 19.906 7.92203 19.9348 8.01121C19.9637 8.10038 19.974 8.19452 19.9652 8.28784C19.9564 8.38115 19.9285 8.47167 19.8834 8.55384C19.8383 8.636 19.7769 8.70807 19.7029 8.76562L14.2029 13.5781C14.0843 13.682 13.9335 13.7419 13.776 13.7478C13.6184 13.7538 13.4636 13.7054 13.3375 13.6108L8.28352 9.8218L3.4375 14.062V17.1875H19.25C19.4323 17.1875 19.6072 17.2599 19.7361 17.3889C19.8651 17.5178 19.9375 17.6927 19.9375 17.875Z" fill="#C1C1C1"/>
</svg>
