<svg width="44" height="44" viewBox="0 0 44 44" fill="none" xmlns="http://www.w3.org/2000/svg">
<rect width="44" height="44" rx="8" fill="#F4CE30"/>
<path d="M27.625 8.875H16.375C15.6291 8.875 14.9137 9.17132 14.3863 9.69876C13.8588 10.2262 13.5625 10.9416 13.5625 11.6875V32.3125C13.5625 33.0584 13.8588 33.7738 14.3863 34.3012C14.9137 34.8287 15.6291 35.125 16.375 35.125H27.625C28.3709 35.125 29.0863 34.8287 29.6137 34.3012C30.1412 33.7738 30.4375 33.0584 30.4375 32.3125V11.6875C30.4375 10.9416 30.1412 10.2262 29.6137 9.69876C29.0863 9.17132 28.3709 8.875 27.625 8.875ZM15.4375 14.5H28.5625V29.5H15.4375V14.5ZM16.375 10.75H27.625C27.8736 10.75 28.1121 10.8488 28.2879 11.0246C28.4637 11.2004 28.5625 11.4389 28.5625 11.6875V12.625H15.4375V11.6875C15.4375 11.4389 15.5363 11.2004 15.7121 11.0246C15.8879 10.8488 16.1264 10.75 16.375 10.75ZM27.625 33.25H16.375C16.1264 33.25 15.8879 33.1512 15.7121 32.9754C15.5363 32.7996 15.4375 32.5611 15.4375 32.3125V31.375H28.5625V32.3125C28.5625 32.5611 28.4637 32.7996 28.2879 32.9754C28.1121 33.1512 27.8736 33.25 27.625 33.25Z" fill="white"/>
</svg>
