<svg width="20" height="20" viewBox="0 0 20 20" fill="none" xmlns="http://www.w3.org/2000/svg">
<path d="M14.7512 12.7501C13.7401 12.7501 12.9178 13.5723 12.9178 14.5834C12.9178 15.5945 13.7401 16.4168 14.7512 16.4168C15.7623 16.4168 16.5845 15.5945 16.5845 14.5834C16.5845 13.5723 15.7623 12.7501 14.7512 12.7501ZM14.7512 15.5001C14.2458 15.5001 13.8345 15.0888 13.8345 14.5834C13.8345 14.0781 14.2458 13.6668 14.7512 13.6668C15.2565 13.6668 15.6678 14.0781 15.6678 14.5834C15.6678 15.0888 15.2565 15.5001 14.7512 15.5001ZM19.1667 15.0408L18.4241 14.5547L19.1667 14.1259C19.604 13.8735 19.7543 13.3117 19.5023 12.8736L18.6071 11.3236C18.4845 11.1115 18.2871 10.9597 18.0503 10.8966C17.8149 10.8322 17.5661 10.8652 17.3548 10.9879L16.5845 11.422V10.4583C16.5845 9.95298 16.1732 9.54167 15.6678 9.54167H13.8345C13.3291 9.54167 12.9178 9.95298 12.9178 10.4583L12.908 11.4273L12.1471 10.9878C11.935 10.8656 11.6879 10.8325 11.4515 10.8965C11.2148 10.9596 11.0174 11.1114 10.8948 11.3235L10 12.8735C9.74755 13.3108 9.89752 13.8725 10.3352 14.1258L11.0862 14.607L10.3348 15.0411C9.89742 15.294 9.74755 15.8558 10 16.293L10.8948 17.843C11.1472 18.2803 11.7085 18.4307 12.1471 18.1787L12.9178 17.7446V18.7082C12.9178 19.2136 13.3291 19.6249 13.8345 19.6249H15.6678C16.1732 19.6249 16.5845 19.2136 16.5845 18.7082L16.5939 17.7392L17.3553 18.1792C17.794 18.4299 18.3552 18.2808 18.6072 17.8431L19.5029 16.2926C19.7544 15.8549 19.604 15.2933 19.1667 15.0408ZM17.8131 17.3849L17.0517 16.9449C16.7747 16.7864 16.4237 16.7904 16.1324 16.9582C15.8415 17.1261 15.6678 17.4201 15.6678 17.7446V18.7083H13.8345V17.7446C13.8345 17.4251 13.6564 17.1239 13.3654 16.9559C13.2164 16.8696 13.0543 16.8261 12.8937 16.8261C12.7397 16.8261 12.5876 16.866 12.4497 16.9452L11.6888 17.3848L10.7936 15.8348L11.5446 15.4011C11.8306 15.2359 12.0015 14.9311 12.0015 14.5807C12.0015 14.236 11.831 13.9312 11.5446 13.7652L10.794 13.3319L11.6888 11.7819L12.4502 12.2219C12.7304 12.3831 13.0728 12.379 13.3695 12.2085C13.6564 12.0429 13.8345 11.7417 13.8345 11.4221V10.4584H15.6678V11.4221C15.6678 11.7466 15.8415 12.0407 16.1364 12.2108C16.4238 12.3773 16.7747 12.3818 17.0522 12.2215L17.8131 11.782L18.7083 13.332L17.9654 13.7613C17.674 13.93 17.4927 14.2438 17.4927 14.5871C17.4927 14.9232 17.6741 15.237 17.9658 15.4062L18.7083 15.8349L17.8131 17.3849ZM8.7669 16.875H3.58333C2.3198 16.875 1.29167 15.8469 1.29167 14.5833V8.625H12.4856C12.866 8.34413 13.3264 8.16667 13.8345 8.16667H15.6678C16.1522 8.16667 16.5911 8.33103 16.9607 8.58943C17.2935 8.81952 17.5729 9.12165 17.7456 9.49153C17.761 9.49098 17.7762 9.49648 17.7917 9.4962V5.41667C17.7917 3.64778 16.3522 2.20833 14.5833 2.20833H13.2083V0.833333C13.2083 0.579967 13.0034 0.375 12.75 0.375C12.4966 0.375 12.2917 0.579967 12.2917 0.833333V2.20833H5.875V0.833333C5.875 0.579967 5.67003 0.375 5.41667 0.375C5.1633 0.375 4.95833 0.579967 4.95833 0.833333V2.20833H3.58333C1.81444 2.20833 0.375 3.64778 0.375 5.41667V14.5833C0.375 16.3522 1.81444 17.7917 3.58333 17.7917H9.27739L8.80934 16.9806C8.78982 16.9468 8.7845 16.9094 8.7669 16.875ZM1.29167 5.41676C1.29167 4.15323 2.3198 3.12509 3.58333 3.12509H4.95833V4.50009C4.95833 4.75346 5.1633 4.95843 5.41667 4.95843C5.67003 4.95843 5.875 4.75346 5.875 4.50009V3.12509H12.2917V4.50009C12.2917 4.75346 12.4966 4.95843 12.75 4.95843C13.0034 4.95843 13.2083 4.75346 13.2083 4.50009V3.12509H14.5833C15.8469 3.12509 16.875 4.15323 16.875 5.41676V7.70843H1.29167V5.41676Z" fill="white"/>
</svg>
