<svg width="44" height="44" viewBox="0 0 44 44" fill="none" xmlns="http://www.w3.org/2000/svg">
<rect width="44" height="44" rx="8" fill="#F4CE30"/>
<path d="M29.4047 26.2859C27.829 26.2859 26.5475 27.5674 26.5475 29.1431C26.5475 30.7188 27.829 32.0003 29.4047 32.0003C30.9804 32.0003 32.2619 30.7188 32.2619 29.1431C32.2619 27.5674 30.9804 26.2859 29.4047 26.2859ZM29.4047 30.5717C28.6171 30.5717 27.9761 29.9307 27.9761 29.1431C27.9761 28.3555 28.6171 27.7145 29.4047 27.7145C30.1923 27.7145 30.8333 28.3555 30.8333 29.1431C30.8333 29.9307 30.1923 30.5717 29.4047 30.5717ZM36.2861 29.856L35.1288 29.0984L36.2861 28.4301C36.9677 28.0367 37.202 27.1612 36.8092 26.4784L35.4141 24.0628C35.2229 23.7322 34.9153 23.4956 34.5463 23.3974C34.1795 23.2969 33.7916 23.3485 33.4623 23.5396L32.2619 24.2162V22.7144C32.2619 21.9268 31.6209 21.2858 30.8333 21.2858H27.9761C27.1885 21.2858 26.5475 21.9268 26.5475 22.7144L26.5322 24.2245L25.3464 23.5395C25.0158 23.3491 24.6306 23.2975 24.2624 23.3972C23.8934 23.4955 23.5858 23.7321 23.3946 24.0627L22.0002 26.4782C21.6068 27.1598 21.8405 28.0351 22.5226 28.43L23.6931 29.1798L22.5219 29.8564C21.8403 30.2505 21.6068 31.126 22.0002 31.8074L23.3946 34.223C23.7881 34.9046 24.6628 35.1388 25.3464 34.7461L26.5475 34.0696V35.5714C26.5475 36.359 27.1885 37 27.9761 37H30.8333C31.6209 37 32.2619 36.359 32.2619 35.5714L32.2766 34.0613L33.4632 34.747C34.1468 35.1376 35.0215 34.9053 35.4142 34.2231L36.8101 31.8068C37.2021 31.1247 36.9677 30.2494 36.2861 29.856ZM34.1766 33.509L32.99 32.8233C32.5583 32.5763 32.0113 32.5826 31.5573 32.8441C31.1039 33.1057 30.8333 33.564 30.8333 34.0697V35.5716H27.9761V34.0697C27.9761 33.5717 27.6985 33.1023 27.2451 32.8405C27.0128 32.706 26.7602 32.6383 26.51 32.6383C26.27 32.6383 26.0328 32.7004 25.8179 32.8238L24.6321 33.5088L23.2369 31.0933L24.4074 30.4174C24.8531 30.16 25.1195 29.685 25.1195 29.1388C25.1195 28.6017 24.8538 28.1267 24.4074 27.868L23.2376 27.1927L24.6321 24.7771L25.8187 25.4628C26.2554 25.7139 26.789 25.7077 27.2514 25.4419C27.6985 25.1838 27.9761 24.7144 27.9761 24.2164V22.7145H30.8333V24.2164C30.8333 24.7221 31.104 25.1804 31.5636 25.4455C32.0115 25.7049 32.5583 25.7119 32.9908 25.4622L34.1766 24.7772L35.5718 27.1928L34.4139 27.8618C33.9598 28.1248 33.6773 28.6138 33.6773 29.1488C33.6773 29.6727 33.9599 30.1617 34.4146 30.4254L35.5718 31.0935L34.1766 33.509ZM20.0784 32.7144H12.0001C10.0309 32.7144 8.42859 31.1121 8.42859 29.143V19.8572H25.874C26.4668 19.4195 27.1843 19.1429 27.9761 19.1429H30.8333C31.5882 19.1429 32.2722 19.3991 32.8482 19.8018C33.3668 20.1603 33.8022 20.6312 34.0713 21.2076C34.0953 21.2068 34.1191 21.2154 34.1432 21.2149V14.8572C34.1432 12.1005 31.8999 9.85716 29.1431 9.85716H27.0003V7.71429C27.0003 7.31943 26.6808 7 26.286 7C25.8911 7 25.5717 7.31943 25.5717 7.71429V9.85716H15.5715V7.71429C15.5715 7.31943 15.2521 7 14.8572 7C14.4624 7 14.1429 7.31943 14.1429 7.71429V9.85716H12.0001C9.24331 9.85716 7 12.1005 7 14.8572V29.143C7 31.8997 9.24331 34.143 12.0001 34.143H20.874L20.1446 32.879C20.1142 32.8263 20.1059 32.768 20.0784 32.7144ZM8.42859 14.8573C8.42859 12.8882 10.0309 11.2859 12.0001 11.2859H14.1429V13.4287C14.1429 13.8236 14.4624 14.143 14.8572 14.143C15.2521 14.143 15.5715 13.8236 15.5715 13.4287V11.2859H25.5717V13.4287C25.5717 13.8236 25.8911 14.143 26.286 14.143C26.6808 14.143 27.0003 13.8236 27.0003 13.4287V11.2859H29.1431C31.1123 11.2859 32.7146 12.8882 32.7146 14.8573V18.4288H8.42859V14.8573Z" fill="white"/>
</svg>
