<svg width="20" height="20" viewBox="0 0 20 20" fill="none" xmlns="http://www.w3.org/2000/svg">
<g clip-path="url(#clip0_3265_226)">
<path d="M15.8 1.29965H14.64V0.719648C14.64 0.399648 14.38 0.139648 14.06 0.139648C13.74 0.139648 13.48 0.399648 13.48 0.719648V1.29965H6.51997V0.719648C6.51997 0.399648 6.25997 0.139648 5.93997 0.139648C5.61997 0.139648 5.35997 0.399648 5.35997 0.719648V1.29965H4.19997C2.27797 1.29965 0.719971 2.85765 0.719971 4.77965V16.3797C0.719971 18.3016 2.27797 19.8596 4.19997 19.8596H15.8C17.722 19.8596 19.28 18.3016 19.28 16.3797V4.77965C19.28 2.85765 17.722 1.29965 15.8 1.29965ZM18.12 16.3797C18.118 17.6596 17.08 18.6976 15.8 18.6996H4.19997C2.91997 18.6976 1.88197 17.6596 1.87997 16.3797V7.09965H18.12V16.3797ZM18.12 5.93965H1.87997V4.77965C1.88197 3.49965 2.91997 2.46165 4.19997 2.45965H5.35997V3.03965C5.35997 3.35965 5.61997 3.61965 5.93997 3.61965C6.25997 3.61965 6.51997 3.35965 6.51997 3.03965V2.45965H13.48V3.03965C13.48 3.35965 13.74 3.61965 14.06 3.61965C14.38 3.61965 14.64 3.35965 14.64 3.03965V2.45965H15.8C17.08 2.46165 18.118 3.49965 18.12 4.77965V5.93965ZM6.68997 13.8896C6.46797 13.6596 6.47397 13.2916 6.70397 13.0696C6.92797 12.8516 7.28597 12.8516 7.50997 13.0696L9.37197 14.9317L13.606 9.63765C13.806 9.38765 14.172 9.34765 14.422 9.54765C14.672 9.74765 14.712 10.1136 14.512 10.3636L9.87197 16.1636C9.76797 16.2916 9.61597 16.3716 9.45197 16.3797H9.41997C9.26597 16.3797 9.11797 16.3197 9.00997 16.2097L6.68997 13.8896Z" fill="#C1C1C1"/>
</g>
<defs>
<clipPath id="clip0_3265_226">
<rect width="20" height="20" fill="white"/>
</clipPath>
</defs>
</svg>
