<svg width="44" height="44" viewBox="0 0 44 44" fill="none" xmlns="http://www.w3.org/2000/svg">
<rect width="44" height="44" rx="8" fill="#F4CE30"/>
<path d="M34.0956 9.85204V22.9313C34.0956 23.465 33.8836 23.9768 33.5062 24.3541C33.1288 24.7315 32.617 24.9435 32.0834 24.9435H18.4143L19.7159 26.2439C19.8094 26.3374 19.8835 26.4483 19.9341 26.5705C19.9847 26.6926 20.0108 26.8235 20.0108 26.9557C20.0108 27.0879 19.9847 27.2188 19.9341 27.3409C19.8835 27.4631 19.8094 27.574 19.7159 27.6675C19.6224 27.761 19.5115 27.8351 19.3893 27.8857C19.2672 27.9363 19.1363 27.9624 19.0041 27.9624C18.8719 27.9624 18.741 27.9363 18.6189 27.8857C18.4967 27.8351 18.3858 27.761 18.2923 27.6675L15.274 24.6492C15.1804 24.5558 15.1062 24.4448 15.0556 24.3227C15.005 24.2005 14.9789 24.0696 14.9789 23.9374C14.9789 23.8052 15.005 23.6743 15.0556 23.5521C15.1062 23.43 15.1804 23.319 15.274 23.2256L18.2923 20.2073C18.4811 20.0185 18.7371 19.9125 19.0041 19.9125C19.2711 19.9125 19.5271 20.0185 19.7159 20.2073C19.9047 20.3961 20.0108 20.6521 20.0108 20.9191C20.0108 21.1861 19.9047 21.4421 19.7159 21.6309L18.4143 22.9313H32.0834V9.85204H17.998V10.8581C17.998 11.125 17.892 11.3809 17.7033 11.5696C17.5146 11.7582 17.2587 11.8642 16.9919 11.8642C16.7251 11.8642 16.4692 11.7582 16.2805 11.5696C16.0918 11.3809 15.9858 11.125 15.9858 10.8581V9.85204C15.9858 9.31837 16.1978 8.80656 16.5752 8.4292C16.9525 8.05184 17.4643 7.83984 17.998 7.83984H32.0834C32.617 7.83984 33.1288 8.05184 33.5062 8.4292C33.8836 8.80656 34.0956 9.31837 34.0956 9.85204ZM27.0529 27.9618C26.786 27.9618 26.5301 28.0678 26.3415 28.2565C26.1528 28.4452 26.0468 28.7011 26.0468 28.9679V29.974H11.9614V16.8947H25.6305L24.3289 18.1951C24.1401 18.3839 24.034 18.6399 24.034 18.9069C24.034 19.1739 24.1401 19.4299 24.3289 19.6187C24.5177 19.8075 24.7737 19.9136 25.0407 19.9136C25.3077 19.9136 25.5637 19.8075 25.7525 19.6187L28.7708 16.6004C28.8643 16.507 28.9385 16.396 28.9892 16.2739C29.0398 16.1518 29.0659 16.0208 29.0659 15.8886C29.0659 15.7564 29.0398 15.6255 28.9892 15.5033C28.9385 15.3812 28.8643 15.2702 28.7708 15.1768L25.7525 12.1585C25.5637 11.9697 25.3077 11.8637 25.0407 11.8637C24.7737 11.8637 24.5177 11.9697 24.3289 12.1585C24.1401 12.3473 24.034 12.6033 24.034 12.8703C24.034 13.1373 24.1401 13.3934 24.3289 13.5821L25.6305 14.8825H11.9614C11.4277 14.8825 10.9159 15.0945 10.5386 15.4719C10.1612 15.8492 9.94922 16.3611 9.94922 16.8947V29.974C9.94922 30.5077 10.1612 31.0195 10.5386 31.3968C10.9159 31.7742 11.4277 31.9862 11.9614 31.9862H26.0468C26.5804 31.9862 27.0923 31.7742 27.4696 31.3968C27.847 31.0195 28.059 30.5077 28.059 29.974V28.9679C28.059 28.7011 27.953 28.4452 27.7643 28.2565C27.5756 28.0678 27.3197 27.9618 27.0529 27.9618Z" fill="white"/>
</svg>
