<svg width="20" height="20" viewBox="0 0 20 20" fill="none" xmlns="http://www.w3.org/2000/svg">
<path d="M7.79877 17.2917C7.58114 17.2912 7.37174 17.2084 7.21252 17.0601L2.31474 12.5645C2.26693 12.5206 2.22877 12.4672 2.20267 12.4077C2.17656 12.3482 2.16309 12.284 2.16309 12.2191C2.16309 12.1541 2.17656 12.0899 2.20267 12.0304C2.22877 11.971 2.26693 11.9176 2.31474 11.8736L7.21252 7.37764C7.33734 7.26313 7.49278 7.18742 7.6599 7.15975C7.82701 7.13208 7.99856 7.15365 8.15363 7.22183C8.30869 7.29 8.44056 7.40183 8.53314 7.54368C8.62573 7.68552 8.67502 7.85125 8.67502 8.02064V9.53076H11.7945C11.9188 9.53076 12.0381 9.58015 12.126 9.66806C12.2139 9.75597 12.2633 9.87519 12.2633 9.99951V11.8303L16.6758 7.77998L12.2633 3.72967V5.56011C12.2633 5.68443 12.2139 5.80366 12.126 5.89156C12.0381 5.97947 11.9188 6.02886 11.7945 6.02886H4.81965C4.69533 6.02886 4.5761 5.97947 4.48819 5.89156C4.40028 5.80366 4.3509 5.68443 4.3509 5.56011C4.3509 5.43579 4.40028 5.31656 4.48819 5.22865C4.5761 5.14074 4.69533 5.09136 4.81965 5.09136H11.3257V3.58136C11.3257 3.41197 11.375 3.24624 11.4676 3.1044C11.5602 2.96256 11.6921 2.85076 11.8472 2.78264C12.0023 2.71451 12.1738 2.69302 12.3409 2.72078C12.508 2.74854 12.6634 2.82435 12.7882 2.93895L17.6859 7.43451C17.7337 7.47847 17.7718 7.53187 17.7979 7.59133C17.824 7.65079 17.8375 7.71503 17.8375 7.77997C17.8375 7.84491 17.824 7.90914 17.7979 7.96861C17.7718 8.02807 17.7337 8.08147 17.6859 8.12542L12.7881 12.6214C12.6633 12.7359 12.5078 12.8116 12.3407 12.8393C12.1736 12.8669 12.002 12.8454 11.847 12.7772C11.6919 12.709 11.56 12.5972 11.4675 12.4553C11.3749 12.3135 11.3256 12.1478 11.3256 11.9784V10.4683H8.20618C8.08186 10.4683 7.96263 10.4189 7.87472 10.331C7.78681 10.2431 7.73743 10.1238 7.73743 9.99951V8.16876L3.32493 12.219L7.73743 16.2694V14.4389C7.73743 14.3146 7.78681 14.1954 7.87472 14.1075C7.96263 14.0196 8.08186 13.9702 8.20618 13.9702H14.3518C14.4761 13.9702 14.5954 14.0196 14.6833 14.1075C14.7712 14.1954 14.8206 14.3146 14.8206 14.4389C14.8206 14.5632 14.7712 14.6825 14.6833 14.7704C14.5954 14.8583 14.4761 14.9077 14.3518 14.9077H8.67493V16.4177C8.6763 16.5874 8.62753 16.7537 8.53475 16.8958C8.44196 17.0378 8.30929 17.1494 8.15336 17.2163C8.04168 17.2658 7.92092 17.2915 7.79877 17.2917Z" fill="#C1C1C1"/>
</svg>
