<svg width="20" height="20" viewBox="0 0 20 20" fill="none" xmlns="http://www.w3.org/2000/svg">
<path d="M15.2485 4.75852C15.1714 4.68127 15.0798 4.61998 14.979 4.57816C14.8782 4.53634 14.7701 4.51482 14.661 4.51482C14.5518 4.51482 14.4438 4.53634 14.343 4.57816C14.2421 4.61998 14.1506 4.68127 14.0735 4.75852L9.99848 8.82519L5.92348 4.75019C5.84633 4.67303 5.75473 4.61183 5.65393 4.57008C5.55313 4.52833 5.44509 4.50684 5.33598 4.50684C5.22687 4.50684 5.11883 4.52833 5.01802 4.57008C4.91722 4.61183 4.82563 4.67303 4.74848 4.75019C4.67133 4.82734 4.61013 4.91893 4.56837 5.01973C4.52662 5.12054 4.50513 5.22858 4.50513 5.33769C4.50513 5.4468 4.52662 5.55484 4.56837 5.65564C4.61013 5.75644 4.67133 5.84803 4.74848 5.92519L8.82348 10.0002L4.74848 14.0752C4.67133 14.1523 4.61013 14.2439 4.56837 14.3447C4.52662 14.4455 4.50513 14.5536 4.50513 14.6627C4.50513 14.7718 4.52662 14.8798 4.56837 14.9806C4.61013 15.0814 4.67133 15.173 4.74848 15.2502C4.82563 15.3273 4.91722 15.3885 5.01802 15.4303C5.11883 15.472 5.22687 15.4935 5.33598 15.4935C5.44509 15.4935 5.55313 15.472 5.65393 15.4303C5.75473 15.3885 5.84633 15.3273 5.92348 15.2502L9.99848 11.1752L14.0735 15.2502C14.1506 15.3273 14.2422 15.3885 14.343 15.4303C14.4438 15.472 14.5519 15.4935 14.661 15.4935C14.7701 15.4935 14.8781 15.472 14.9789 15.4303C15.0797 15.3885 15.1713 15.3273 15.2485 15.2502C15.3256 15.173 15.3868 15.0814 15.4286 14.9806C15.4703 14.8798 15.4918 14.7718 15.4918 14.6627C15.4918 14.5536 15.4703 14.4455 15.4286 14.3447C15.3868 14.2439 15.3256 14.1523 15.2485 14.0752L11.1735 10.0002L15.2485 5.92519C15.5651 5.60852 15.5651 5.07519 15.2485 4.75852Z" fill="white"/>
</svg>
