<svg width="20" height="20" viewBox="0 0 20 20" fill="none" xmlns="http://www.w3.org/2000/svg">
<g clip-path="url(#clip0_1962_674)">
<path fill-rule="evenodd" clip-rule="evenodd" d="M9.3745 2.5C9.3745 1.465 8.5345 0.625 7.4995 0.625H2.5C1.465 0.625 0.625 1.465 0.625 2.5V7.4995C0.625 8.5345 1.465 9.3745 2.5 9.3745H7.4995C8.5345 9.3745 9.3745 8.5345 9.3745 7.4995V2.5ZM8.125 2.5V7.4995C8.125 7.8445 7.8445 8.125 7.4995 8.125H2.5C2.155 8.125 1.8745 7.8445 1.8745 7.4995V2.5C1.8745 2.155 2.155 1.8745 2.5 1.8745H7.4995C7.8445 1.8745 8.125 2.155 8.125 2.5Z" fill="#C1C1C1"/>
<path fill-rule="evenodd" clip-rule="evenodd" d="M9.3745 12.5C9.3745 11.465 8.5345 10.625 7.4995 10.625H2.5C1.465 10.625 0.625 11.465 0.625 12.5V17.4995C0.625 18.5345 1.465 19.3745 2.5 19.3745H7.4995C8.5345 19.3745 9.3745 18.5345 9.3745 17.4995V12.5ZM8.125 12.5V17.4995C8.125 17.8445 7.8445 18.125 7.4995 18.125H2.5C2.155 18.125 1.8745 17.8445 1.8745 17.4995V12.5C1.8745 12.155 2.155 11.8745 2.5 11.8745H7.4995C7.8445 11.8745 8.125 12.155 8.125 12.5Z" fill="#C1C1C1"/>
<path fill-rule="evenodd" clip-rule="evenodd" d="M19.3745 2.5C19.3745 1.465 18.5345 0.625 17.4995 0.625H12.5C11.465 0.625 10.625 1.465 10.625 2.5V7.4995C10.625 8.5345 11.465 9.3745 12.5 9.3745H17.4995C18.5345 9.3745 19.3745 8.5345 19.3745 7.4995V2.5ZM18.125 2.5V7.4995C18.125 7.8445 17.8445 8.125 17.4995 8.125H12.5C12.155 8.125 11.8745 7.8445 11.8745 7.4995V2.5C11.8745 2.155 12.155 1.8745 12.5 1.8745H17.4995C17.8445 1.8745 18.125 2.155 18.125 2.5Z" fill="#C1C1C1"/>
<path fill-rule="evenodd" clip-rule="evenodd" d="M19.3745 12.5C19.3745 11.465 18.5345 10.625 17.4995 10.625H12.5C11.465 10.625 10.625 11.465 10.625 12.5V17.4995C10.625 18.5345 11.465 19.3745 12.5 19.3745H17.4995C18.5345 19.3745 19.3745 18.5345 19.3745 17.4995V12.5ZM18.125 12.5V17.4995C18.125 17.8445 17.8445 18.125 17.4995 18.125H12.5C12.155 18.125 11.8745 17.8445 11.8745 17.4995V12.5C11.8745 12.155 12.155 11.8745 12.5 11.8745H17.4995C17.8445 11.8745 18.125 12.155 18.125 12.5Z" fill="#C1C1C1"/>
</g>
<defs>
<clipPath id="clip0_1962_674">
<rect width="20" height="20" fill="white"/>
</clipPath>
</defs>
</svg>
