<svg width="21" height="20" viewBox="0 0 21 20" fill="none" xmlns="http://www.w3.org/2000/svg">
<path d="M18 11.25V16.25C18 16.4158 17.9342 16.5747 17.8169 16.6919C17.6997 16.8092 17.5408 16.875 17.375 16.875H3.625C3.45924 16.875 3.30027 16.8092 3.18306 16.6919C3.06585 16.5747 3 16.4158 3 16.25V11.25C3 11.0842 3.06585 10.9253 3.18306 10.8081C3.30027 10.6908 3.45924 10.625 3.625 10.625C3.79076 10.625 3.94973 10.6908 4.06694 10.8081C4.18415 10.9253 4.25 11.0842 4.25 11.25V15.625H16.75V11.25C16.75 11.0842 16.8158 10.9253 16.9331 10.8081C17.0503 10.6908 17.2092 10.625 17.375 10.625C17.5408 10.625 17.6997 10.6908 17.8169 10.8081C17.9342 10.9253 18 11.0842 18 11.25ZM10.0578 11.6922C10.1159 11.7503 10.1848 11.7964 10.2607 11.8279C10.3365 11.8593 10.4179 11.8755 10.5 11.8755C10.5821 11.8755 10.6635 11.8593 10.7393 11.8279C10.8152 11.7964 10.8841 11.7503 10.9422 11.6922L14.0672 8.56719C14.1253 8.50912 14.1713 8.44018 14.2027 8.36431C14.2342 8.28844 14.2503 8.20712 14.2503 8.125C14.2503 8.04288 14.2342 7.96156 14.2027 7.88569C14.1713 7.80982 14.1253 7.74088 14.0672 7.68281C14.0091 7.62474 13.9402 7.57868 13.8643 7.54725C13.7884 7.51583 13.7071 7.49965 13.625 7.49965C13.5429 7.49965 13.4616 7.51583 13.3857 7.54725C13.3098 7.57868 13.2409 7.62474 13.1828 7.68281L11.125 9.74141V2.5C11.125 2.33424 11.0592 2.17527 10.9419 2.05806C10.8247 1.94085 10.6658 1.875 10.5 1.875C10.3342 1.875 10.1753 1.94085 10.0581 2.05806C9.94085 2.17527 9.875 2.33424 9.875 2.5V9.74141L7.81719 7.68281C7.69991 7.56554 7.54085 7.49965 7.375 7.49965C7.20915 7.49965 7.05009 7.56554 6.93281 7.68281C6.81554 7.80009 6.74965 7.95915 6.74965 8.125C6.74965 8.29085 6.81554 8.44991 6.93281 8.56719L10.0578 11.6922Z" fill="#555555"/>
</svg>
