<svg width="16" height="16" viewBox="0 0 16 16" fill="none" xmlns="http://www.w3.org/2000/svg">
<path d="M15.2594 3.85684L11.768 0.366217C11.6519 0.250114 11.5141 0.158014 11.3624 0.0951779C11.2107 0.0323417 11.0482 0 10.884 0C10.7198 0 10.5572 0.0323417 10.4056 0.0951779C10.2539 0.158014 10.1161 0.250114 10 0.366217L0.366412 9.99981C0.249834 10.1155 0.157407 10.2531 0.0945056 10.4048C0.0316038 10.5565 -0.000518312 10.7192 6.32418e-06 10.8834V14.3748C6.32418e-06 14.7063 0.131702 15.0243 0.366123 15.2587C0.600543 15.4931 0.918486 15.6248 1.25001 15.6248H14.375C14.5408 15.6248 14.6997 15.559 14.8169 15.4418C14.9342 15.3245 15 15.1656 15 14.9998C15 14.8341 14.9342 14.6751 14.8169 14.5579C14.6997 14.4407 14.5408 14.3748 14.375 14.3748H6.50938L15.2594 5.62481C15.3755 5.50873 15.4676 5.37092 15.5304 5.21925C15.5933 5.06757 15.6256 4.905 15.6256 4.74083C15.6256 4.57665 15.5933 4.41408 15.5304 4.26241C15.4676 4.11073 15.3755 3.97292 15.2594 3.85684ZM4.74141 14.3748H1.25001V10.8834L8.12501 4.0084L11.6164 7.49981L4.74141 14.3748ZM12.5 6.61622L9.00938 3.12481L10.8844 1.24981L14.375 4.74122L12.5 6.61622Z" fill="#25262D"/>
</svg>
