<svg width="44" height="44" viewBox="0 0 44 44" fill="none" xmlns="http://www.w3.org/2000/svg">
<rect width="44" height="44" rx="8" fill="#F4CE30"/>
<path d="M31.3258 14.4813C28.8965 13.2672 25.6715 12.625 22 12.625C18.3285 12.625 15.1035 13.2672 12.6742 14.4813C10.2449 15.6953 8.875 17.4039 8.875 19.1875V24.8125C8.875 26.5961 10.2602 28.3105 12.6742 29.5188C15.0883 30.727 18.3285 31.375 22 31.375C25.6715 31.375 28.8965 30.7328 31.3258 29.5188C33.7551 28.3047 35.125 26.5961 35.125 24.8125V19.1875C35.125 17.4039 33.7398 15.6895 31.3258 14.4813ZM22 14.5C29.3406 14.5 33.25 17.2223 33.25 19.1875C33.25 21.1527 29.3406 23.875 22 23.875C14.6594 23.875 10.75 21.1527 10.75 19.1875C10.75 17.2223 14.6594 14.5 22 14.5ZM21.0625 25.7336V29.4836C18.8359 29.4109 16.9609 29.0828 15.4375 28.6059V24.9355C17.274 25.4248 19.1624 25.6927 21.0625 25.7336ZM22.9375 25.7336C24.8376 25.6927 26.726 25.4248 28.5625 24.9355V28.6047C27.0391 29.0816 25.1641 29.4098 22.9375 29.4824V25.7336ZM10.75 24.8125V22.648C11.34 23.1378 11.9859 23.5559 12.6742 23.8938C12.959 24.0355 13.2602 24.1691 13.5625 24.2957V27.8594C11.7074 26.9406 10.75 25.784 10.75 24.8125ZM30.4375 27.8594V24.2957C30.7434 24.1691 31.041 24.0355 31.3258 23.8938C32.0141 23.5559 32.66 23.1378 33.25 22.648V24.8125C33.25 25.784 32.2926 26.9406 30.4375 27.8594Z" fill="white"/>
</svg>
