<svg width="20" height="20" viewBox="0 0 20 20" fill="none" xmlns="http://www.w3.org/2000/svg">
<g clip-path="url(#clip0_2011_1244)">
<path d="M19.375 5.15625H15.2785C15.7804 4.62433 16.0938 3.91228 16.0938 3.125C16.0938 1.48804 14.762 0.15625 13.125 0.15625C11.7601 0.15625 10.6095 1.2719 10 2.93571C9.39049 1.2719 8.2399 0.15625 6.875 0.15625C5.23804 0.15625 3.90625 1.48804 3.90625 3.125C3.90625 3.91228 4.21959 4.62433 4.72145 5.15625H0.625C0.366211 5.15625 0.15625 5.36621 0.15625 5.625V9.375C0.15625 9.63379 0.366211 9.84375 0.625 9.84375H1.40625V18.125C1.40625 19.0729 2.17773 19.8438 3.125 19.8438H16.875C17.8223 19.8438 18.5938 19.0729 18.5938 18.125V9.84375H19.375C19.6338 9.84375 19.8438 9.63379 19.8438 9.375V5.625C19.8438 5.36621 19.6338 5.15625 19.375 5.15625ZM13.125 1.09375C14.2456 1.09375 15.1562 2.005 15.1562 3.125C15.1562 4.245 14.2456 5.15625 13.125 5.15625H10.4974C10.6415 2.91321 11.7783 1.09375 13.125 1.09375ZM4.84375 3.125C4.84375 2.005 5.75439 1.09375 6.875 1.09375C8.22166 1.09375 9.35852 2.91321 9.50256 5.15625H6.875C5.75439 5.15625 4.84375 4.245 4.84375 3.125ZM17.6562 18.125C17.6562 18.5559 17.3059 18.9062 16.875 18.9062H3.125C2.69409 18.9062 2.34375 18.5559 2.34375 18.125V9.84375H4.375C4.63379 9.84375 4.84375 9.63379 4.84375 9.375C4.84375 9.11621 4.63379 8.90625 4.375 8.90625H1.09375V6.09375H18.9062V8.90625H15.625C15.3662 8.90625 15.1562 9.11621 15.1562 9.375C15.1562 9.63379 15.3662 9.84375 15.625 9.84375H17.6562V18.125Z" fill="#C1C1C1"/>
<path d="M14.0098 10.8387L11.5293 10.478L10.4197 8.2301C10.2635 7.91028 9.73611 7.91028 9.57986 8.2301L8.47024 10.478L5.98977 10.8387C5.81277 10.8644 5.66629 10.9883 5.61135 11.158C5.55642 11.3276 5.60159 11.5138 5.72976 11.6383L7.5242 13.3876L7.10183 15.8583C7.07131 16.0341 7.14334 16.2123 7.28738 16.3167C7.43142 16.4222 7.62429 16.4363 7.78176 16.3527L9.99978 15.1863L12.2178 16.3527C12.2862 16.3887 12.3618 16.4064 12.4363 16.4064C12.534 16.4064 12.6304 16.3765 12.7122 16.3167C12.8562 16.2123 12.9282 16.0341 12.8977 15.8583L12.4754 13.3876L14.2698 11.6383C14.398 11.5138 14.4431 11.3276 14.3882 11.158C14.3333 10.9883 14.1868 10.8644 14.0098 10.8387ZM11.6441 12.8883C11.533 12.9957 11.4829 13.1514 11.5098 13.3033L11.8137 15.0807L10.2183 14.2415C10.1499 14.2054 10.0742 14.1877 9.99978 14.1877C9.92532 14.1877 9.84964 14.2054 9.78128 14.2415L8.18582 15.0807L8.48977 13.3033C8.51663 13.1514 8.46658 12.9957 8.35549 12.8883L7.06399 11.6298L8.84866 11.3704C9.00125 11.3484 9.13308 11.2526 9.20144 11.114L9.99978 9.49719L10.7981 11.114C10.8665 11.2526 10.9983 11.3484 11.1509 11.3704L12.9356 11.6298L11.6441 12.8883Z" fill="#C1C1C1"/>
</g>
<defs>
<clipPath id="clip0_2011_1244">
<rect width="20" height="20" fill="white"/>
</clipPath>
</defs>
</svg>
