<svg width="18" height="19" viewBox="0 0 18 19" fill="none" xmlns="http://www.w3.org/2000/svg">
<path d="M15.875 1.75H13.8125V1.0625C13.8125 0.880164 13.7401 0.705295 13.6111 0.576364C13.4822 0.447433 13.3073 0.375 13.125 0.375C12.9427 0.375 12.7678 0.447433 12.6389 0.576364C12.5099 0.705295 12.4375 0.880164 12.4375 1.0625V1.75H5.5625V1.0625C5.5625 0.880164 5.49007 0.705295 5.36114 0.576364C5.2322 0.447433 5.05734 0.375 4.875 0.375C4.69266 0.375 4.5178 0.447433 4.38886 0.576364C4.25993 0.705295 4.1875 0.880164 4.1875 1.0625V1.75H2.125C1.76033 1.75 1.41059 1.89487 1.15273 2.15273C0.894866 2.41059 0.75 2.76033 0.75 3.125V16.875C0.75 17.2397 0.894866 17.5894 1.15273 17.8473C1.41059 18.1051 1.76033 18.25 2.125 18.25H15.875C16.2397 18.25 16.5894 18.1051 16.8473 17.8473C17.1051 17.5894 17.25 17.2397 17.25 16.875V3.125C17.25 2.76033 17.1051 2.41059 16.8473 2.15273C16.5894 1.89487 16.2397 1.75 15.875 1.75ZM15.875 16.875H2.125V3.125H4.1875V3.8125C4.1875 3.99484 4.25993 4.1697 4.38886 4.29864C4.5178 4.42757 4.69266 4.5 4.875 4.5C5.05734 4.5 5.2322 4.42757 5.36114 4.29864C5.49007 4.1697 5.5625 3.99484 5.5625 3.8125V3.125H12.4375V3.8125C12.4375 3.99484 12.5099 4.1697 12.6389 4.29864C12.7678 4.42757 12.9427 4.5 13.125 4.5C13.3073 4.5 13.4822 4.42757 13.6111 4.29864C13.7401 4.1697 13.8125 3.99484 13.8125 3.8125V3.125H15.875V16.875ZM13.1783 8.76594L10.6139 8.56742L9.63164 6.29008C9.57856 6.16657 9.49044 6.06133 9.37818 5.98739C9.26591 5.91344 9.13443 5.87403 9 5.87403C8.86557 5.87403 8.73409 5.91344 8.62183 5.98739C8.50956 6.06133 8.42144 6.16657 8.36836 6.29008L7.38609 8.56742L4.82172 8.76594C4.68525 8.77669 4.55509 8.82795 4.44793 8.91313C4.34077 8.99832 4.26148 9.11356 4.22022 9.24408C4.17895 9.37461 4.1776 9.51449 4.21632 9.64579C4.25505 9.77709 4.33209 9.89385 4.43758 9.98109L6.37289 11.5787L5.78336 13.96C5.75104 14.0913 5.75816 14.2292 5.80382 14.3565C5.84949 14.4838 5.93166 14.5947 6.04008 14.6755C6.14849 14.7563 6.27833 14.8034 6.41334 14.8108C6.54836 14.8182 6.68255 14.7856 6.79914 14.7171L9 13.422L11.2009 14.7171C11.3174 14.7856 11.4516 14.8182 11.5867 14.8108C11.7217 14.8034 11.8515 14.7563 11.9599 14.6755C12.0683 14.5947 12.1505 14.4838 12.1962 14.3565C12.2418 14.2292 12.249 14.0913 12.2166 13.96L11.6271 11.5787L13.5624 9.98109C13.6679 9.89385 13.745 9.77709 13.7837 9.64579C13.8224 9.51449 13.821 9.37461 13.7798 9.24408C13.7385 9.11356 13.6592 8.99832 13.5521 8.91313C13.4449 8.82795 13.3148 8.77669 13.1783 8.76594ZM10.4188 10.7941C10.3188 10.8765 10.2441 10.9855 10.2034 11.1085C10.1626 11.2315 10.1575 11.3635 10.1885 11.4893L10.4893 12.7027L9.34891 12.0316C9.24318 11.9693 9.12271 11.9364 9 11.9364C8.87729 11.9364 8.75682 11.9693 8.65109 12.0316L7.5107 12.7027L7.81148 11.4893C7.84252 11.3635 7.83736 11.2315 7.79661 11.1085C7.75586 10.9855 7.68118 10.8765 7.58117 10.7941L6.62641 10.0052L7.90602 9.90633C8.03084 9.89675 8.15068 9.85326 8.2526 9.78057C8.35453 9.70787 8.43467 9.60873 8.48438 9.49383L9 8.29758L9.51562 9.49383C9.56533 9.60873 9.64547 9.70787 9.7474 9.78057C9.84932 9.85326 9.96916 9.89675 10.094 9.90633L11.3736 10.0052L10.4188 10.7941Z" fill="#C1C1C1"/>
</svg>
