<svg width="44" height="44" viewBox="0 0 44 44" fill="none" xmlns="http://www.w3.org/2000/svg">
<circle cx="22" cy="22" r="22" fill="#F1F1F1"/>
<path d="M32.7547 31.4821C32.6813 31.6092 32.5757 31.7147 32.4486 31.7881C32.3215 31.8614 32.1773 31.9 32.0306 31.9H11.9693C11.8227 31.8998 11.6786 31.8611 11.5517 31.7877C11.4247 31.7143 11.3193 31.6087 11.2461 31.4817C11.1728 31.3546 11.1342 31.2106 11.1343 31.0639C11.1343 30.9172 11.1729 30.7732 11.2463 30.6462C12.8376 27.8951 15.2899 25.9224 18.1517 24.9872C16.7361 24.1445 15.6363 22.8604 15.0211 21.3321C14.4059 19.8038 14.3095 18.1158 14.7465 16.5274C15.1835 14.9389 16.1298 13.5379 17.4402 12.5393C18.7506 11.5408 20.3525 11 21.9999 11C23.6474 11 25.2493 11.5408 26.5597 12.5393C27.87 13.5379 28.8164 14.9389 29.2534 16.5274C29.6904 18.1158 29.5939 19.8038 28.9788 21.3321C28.3636 22.8604 27.2638 24.1445 25.8482 24.9872C28.71 25.9224 31.1623 27.8951 32.7536 30.6462C32.8271 30.7732 32.8659 30.9172 32.8661 31.064C32.8663 31.2107 32.8279 31.3549 32.7547 31.4821Z" fill="#002C56"/>
</svg>
